<svg xmlns="http://www.w3.org/2000/svg" width="132.5" height="176.667" viewBox="0 0 132.5 176.667">
  <g id="humedad" transform="translate(-64)">
    <g id="Grupo_12" data-name="Grupo 12" transform="translate(64)">
      <g id="Grupo_11" data-name="Grupo 11" transform="translate(0)">
        <path id="Trazado_6" data-name="Trazado 6" d="M160.913,38.933c-9.032-11.528-18.373-23.43-25.9-36.217a5.517,5.517,0,0,0-9.507,0c-7.53,12.775-16.872,24.689-25.9,36.206C81.291,62.264,64,84.314,64,110.417a66.25,66.25,0,1,0,132.5,0C196.5,84.325,179.22,62.275,160.913,38.933ZM130.25,165.625a55.271,55.271,0,0,1-55.208-55.208c0-22.293,16.143-42.875,33.247-64.682,7.464-9.518,15.127-19.29,21.962-29.757,6.835,10.468,14.5,20.25,21.962,29.768,17.1,21.8,33.247,42.389,33.247,64.671A55.271,55.271,0,0,1,130.25,165.625Z" transform="translate(-64)" fill="#fff"/>
      </g>
    </g>
  </g>
</svg>
