<svg xmlns="http://www.w3.org/2000/svg" width="224.06" height="176.048" viewBox="0 0 224.06 176.048">
  <g id="viento" transform="translate(0 -48)">
    <g id="Grupo_5" data-name="Grupo 5" transform="translate(0.633 80.009)">
      <g id="Grupo_4" data-name="Grupo 4" transform="translate(0 0)">
        <path id="Trazado_3" data-name="Trazado 3" d="M192.685,112a32.043,32.043,0,0,0-32.009,32.009,8,8,0,0,0,16,0,16,16,0,1,1,16,16H9.268a8,8,0,1,0,0,16H192.685a32.009,32.009,0,0,0,0-64.017Z" transform="translate(-1.266 -112)" fill="#fff"/>
      </g>
    </g>
    <g id="Grupo_7" data-name="Grupo 7" transform="translate(0 48)">
      <g id="Grupo_6" data-name="Grupo 6">
        <path id="Trazado_4" data-name="Trazado 4" d="M112.03,48A32.043,32.043,0,0,0,80.022,80.009a8,8,0,1,0,16,0,16,16,0,1,1,16,16H8a8,8,0,1,0,0,16H112.03a32.009,32.009,0,1,0,0-64.017Z" transform="translate(0 -48)" fill="#fff"/>
      </g>
    </g>
    <g id="Grupo_9" data-name="Grupo 9" transform="translate(0 160.03)">
      <g id="Grupo_8" data-name="Grupo 8" transform="translate(0 0)">
        <path id="Trazado_5" data-name="Trazado 5" d="M112.03,272H8a8,8,0,1,0,0,16H112.03a16,16,0,1,1-16,16,8,8,0,0,0-16,0A32.009,32.009,0,1,0,112.03,272Z" transform="translate(0 -272)" fill="#fff"/>
      </g>
    </g>
  </g>
</svg>
